<?xml version="1.0" encoding="UTF-8"?>
<svg id="Layer_1" data-name="Layer 1" xmlns="http://www.w3.org/2000/svg" viewBox="0 0 588.52 397.21">
  <defs>
    <style>
      .cls-1 {
        fill: #faab5e;
      }

      .cls-2 {
        fill: #007580;
      }

      .cls-3 {
        fill: #fff;
      }

      .cls-4 {
        fill: #ccc;
      }

      .cls-5 {
        fill: #2046b8;
      }
    </style>
  </defs>
  <circle class="cls-2" cx="268.05" cy="198.6" r="198.6"/>
  <g id="Layer_3" data-name="Layer 3">
    <g id="Layer_4" data-name="Layer 4">
      <polygon class="cls-4" points="536.05 135.19 522.03 133.87 527.89 146.67 536.05 135.19"/>
    </g>
    <g>
      <path class="cls-5" d="m515.63,124.67l1.11,2.4,11.26,3.01,22.1-9.05-34.47,3.64Z"/>
      <path class="cls-5" d="m530.8,157.7c-.38-.8-.75-1.6-1.13-2.4l5.07-10.65,21.54-11.32-25.48,24.37Z"/>
      <path class="cls-5" d="m573.26,126.89l-38.51,17.86-6.81-14.67,37.7-17.48c1.34-.62,2.76-1.04,4.21-1.24,4.84-.67,17.08-3.48,18.48-.46,1.26,2.68-4.45,8.13-12.87,14.65-.68.53-1.42.98-2.21,1.34Z"/>
    </g>
    <path class="cls-3" d="m319.31,124.79c-1.13,0-2.05.92-2.05,2.05v20.5c0,1.13.92,2.05,2.05,2.05h20.5c1.13,0,2.05-.92,2.05-2.05v-20.5c0-1.13-.92-2.05-2.05-2.05h-20.5Zm-2.05,147.62v-6.15c0-3.4,2.75-6.15,6.15-6.15s6.15,2.75,6.15,6.15v6.15h12.3v-6.15c0-3.4,2.75-6.15,6.15-6.15s6.15,2.75,6.15,6.15v12.3c0,3.4-2.75,6.15-6.15,6.15h-49.21c-3.4,0-6.15-2.75-6.15-6.15v-12.3c0-3.4,2.75-6.15,6.15-6.15s6.15,2.75,6.15,6.15v6.15h12.3Zm-36.91-86.11h6.15c3.4,0,6.15,2.75,6.15,6.15s-2.75,6.15-6.15,6.15h-24.6c-3.4,0-6.15-2.75-6.15-6.15s2.75-6.15,6.15-6.15h6.15v-12.3h-18.45c-3.4,0-6.15-2.75-6.15-6.15s2.75-6.15,6.15-6.15h36.91c3.4,0,6.15,2.75,6.15,6.15s-2.75,6.15-6.15,6.15h-6.15v12.3Zm61.51,12.3h-6.15c-3.4,0-6.15-2.75-6.15-6.15s2.75-6.15,6.15-6.15h6.15v-6.15c0-3.4,2.75-6.15,6.15-6.15s6.15,2.75,6.15,6.15v24.6c0,3.4-2.75,6.15-6.15,6.15s-6.15-2.75-6.15-6.15v-6.15Zm-61.51,24.6h-6.15c-3.4,0-6.15-2.75-6.15-6.15s2.75-6.15,6.15-6.15h12.3c3.4,0,6.15,2.75,6.15,6.15v24.6c0,3.4-2.75,6.15-6.15,6.15h-36.91c-3.4,0-6.15-2.75-6.15-6.15s2.75-6.15,6.15-6.15h30.75v-12.3h0Zm38.96-110.72h20.5c7.93,0,14.35,6.43,14.35,14.35v20.5c0,7.93-6.43,14.35-14.35,14.35h-20.5c-7.93,0-14.35-6.43-14.35-14.35v-20.5c0-7.93,6.43-14.35,14.35-14.35Zm-123.02,0h20.5c7.93,0,14.35,6.43,14.35,14.35v20.5c0,7.93-6.43,14.35-14.35,14.35h-20.5c-7.93,0-14.35-6.43-14.35-14.35v-20.5c0-7.93,6.43-14.35,14.35-14.35Zm0,12.3c-1.13,0-2.05.92-2.05,2.05v20.5c0,1.13.92,2.05,2.05,2.05h20.5c1.13,0,2.05-.92,2.05-2.05v-20.5c0-1.13-.92-2.05-2.05-2.05h-20.5Zm0,110.72h20.5c7.93,0,14.35,6.43,14.35,14.35v20.5c0,7.93-6.43,14.35-14.35,14.35h-20.5c-7.93,0-14.35-6.43-14.35-14.35v-20.5c0-7.93,6.43-14.35,14.35-14.35Zm0,12.3c-1.13,0-2.05.92-2.05,2.05v20.5c0,1.13.92,2.05,2.05,2.05h20.5c1.13,0,2.05-.92,2.05-2.05v-20.5c0-1.13-.92-2.05-2.05-2.05h-20.5Zm84.06-123.02h-30.75c-3.4,0-6.15-2.75-6.15-6.15s2.75-6.15,6.15-6.15h36.91c3.4,0,6.15,2.75,6.15,6.15v24.6c0,3.4-2.75,6.15-6.15,6.15s-6.15-2.75-6.15-6.15v-18.45Zm-30.75,24.6c-3.4,0-6.15-2.75-6.15-6.15s2.75-6.15,6.15-6.15h12.3c3.4,0,6.15,2.75,6.15,6.15s-2.75,6.15-6.15,6.15h-12.3Zm-61.51,73.81c-3.4,0-6.15-2.75-6.15-6.15s2.75-6.15,6.15-6.15h24.6c3.4,0,6.15,2.75,6.15,6.15s-2.75,6.15-6.15,6.15h-24.6Zm49.21,0c-3.4,0-6.15-2.75-6.15-6.15s2.75-6.15,6.15-6.15h12.3c3.4,0,6.15,2.75,6.15,6.15s-2.75,6.15-6.15,6.15h-12.3Zm18.45,49.21v6.15c0,3.4-2.75,6.15-6.15,6.15s-6.15-2.75-6.15-6.15v-12.3c0-3.4,2.75-6.15,6.15-6.15h24.6c3.4,0,6.15,2.75,6.15,6.15s-2.75,6.15-6.15,6.15h-18.45Zm-24.6-86.11h6.15c3.4,0,6.15,2.75,6.15,6.15s-2.75,6.15-6.15,6.15h-12.3c-3.4,0-6.15-2.75-6.15-6.15v-6.15h-6.15c-3.4,0-6.15-2.75-6.15-6.15s2.75-6.15,6.15-6.15h12.3c3.4,0,6.15,2.75,6.15,6.15v6.15Zm-49.21-6.15c0-3.4,2.75-6.15,6.15-6.15s6.15,2.75,6.15,6.15v12.3c0,3.4-2.75,6.15-6.15,6.15s-6.15-2.75-6.15-6.15v-12.3Zm123.02,0c0-3.4,2.75-6.15,6.15-6.15s6.15,2.75,6.15,6.15v24.6c0,3.4-2.75,6.15-6.15,6.15s-6.15-2.75-6.15-6.15v-24.6Zm24.6,55.36v-6.15c0-3.4,2.75-6.15,6.15-6.15h12.3c3.4,0,6.15,2.75,6.15,6.15s-2.75,6.15-6.15,6.15h-6.15v6.15c0,3.4-2.75,6.15-6.15,6.15h-24.6c-3.4,0-6.15-2.75-6.15-6.15v-12.3c0-3.4,2.75-6.15,6.15-6.15s6.15,2.75,6.15,6.15v6.15h12.3Zm-172.23-104.57c0,3.4-2.75,6.15-6.15,6.15s-6.15-2.75-6.15-6.15v-24.6c0-16.99,13.77-30.75,30.75-30.75h24.6c3.4,0,6.15,2.75,6.15,6.15s-2.75,6.15-6.15,6.15h-24.6c-10.19,0-18.45,8.26-18.45,18.45v24.6Zm178.38-43.06c-3.4,0-6.15-2.75-6.15-6.15s2.75-6.15,6.15-6.15h24.6c16.99,0,30.75,13.77,30.75,30.75v24.6c0,3.4-2.75,6.15-6.15,6.15s-6.15-2.75-6.15-6.15v-24.6c0-10.19-8.26-18.45-18.45-18.45h-24.6Zm-135.32,221.43c3.4,0,6.15,2.75,6.15,6.15s-2.75,6.15-6.15,6.15h-24.6c-16.99,0-30.75-13.77-30.75-30.75v-24.6c0-3.4,2.75-6.15,6.15-6.15s6.15,2.75,6.15,6.15v24.6c0,10.19,8.26,18.45,18.45,18.45h24.6Zm178.38-43.06c0-3.4,2.75-6.15,6.15-6.15s6.15,2.75,6.15,6.15v24.6c0,16.99-13.77,30.75-30.75,30.75h-24.6c-3.4,0-6.15-2.75-6.15-6.15s2.75-6.15,6.15-6.15h24.6c10.19,0,18.45-8.26,18.45-18.45v-24.6Z"/>
  </g>
  <path class="cls-1" d="m74.27,200.99c-16.54,13.68-69.44,58.13-61.42,80.44,9.38,17.45,62.28,8.7,79.53,5.67,52.79-9.93,104.44-26.84,155.11-44.75,76.53-27.26,151.43-58.95,225.67-91.94,0,0,9.28-4.16,9.28-4.16,6.26-2.96,12.51-5.56,19.62-5.98,3.87-.23,7.7-.1,11.66,1.05,0,0,2.49,5.46,2.49,5.46-1.72,3.76-4.16,6.7-6.89,9.49-7.09,7.31-17.9,10.71-26.89,14.95-62.32,27.72-125.38,53.78-189.59,76.85-64.48,22.88-130.03,44.25-197.9,54.74-24.07,3.1-50.22,6.51-74.07-.71-26.09-8.73-25.13-30.41-11.21-49.86,16.33-22.68,38.62-39.77,60.98-56,0,0,3.64,4.77,3.64,4.77h0Z"/>
  <path class="cls-2" d="m69.48,195.05c0,1.77-.01,3.54-.02,5.32.05,2.06.1,4.12.14,6.17l8.65-4.9-8.77-6.6Z"/>
</svg>